<svg width="32" height="29" viewBox="0 0 32 29" fill="none" xmlns="http://www.w3.org/2000/svg">
<path id="Vector" d="M17.7227 0.923386C17.5988 1.05017 17.5004 1.20215 17.4333 1.37062C17.3663 1.53909 17.3317 1.72075 17.3317 1.90522C17.3317 2.08969 17.3663 2.27335 17.4333 2.4457C17.5004 2.61804 17.5988 2.77569 17.7227 2.90964L27.4474 13.427L1.33329 12.673C0.979677 12.6628 0.640549 12.8009 0.390508 13.0569C0.140469 13.3129 -2.07147e-06 13.6659 -2.07147e-06 14.0382C-2.07147e-06 14.4105 0.140469 14.7716 0.390508 15.0421C0.640549 15.3125 0.979677 15.4702 1.33329 15.4804L27.4474 16.2344L17.7227 26.1902C17.4726 26.4463 17.332 26.7995 17.332 27.172C17.332 27.5445 17.4726 27.9058 17.7227 28.1764C17.9729 28.447 18.3122 28.6048 18.6661 28.615C19.0199 28.6252 19.3592 28.4871 19.6094 28.2309L31.609 15.944C31.7329 15.8172 31.8313 15.6652 31.8984 15.4967C31.9655 15.3283 32 15.1466 32 14.9621C32 14.7777 31.9655 14.594 31.8984 14.4216C31.8313 14.2493 31.7329 14.0917 31.609 13.9577L19.6094 0.977856C19.4855 0.843771 19.3385 0.735989 19.1766 0.660675C19.0148 0.585359 18.8413 0.543992 18.6661 0.538933C18.4908 0.533874 18.3173 0.565223 18.1555 0.631192C17.9936 0.697159 17.8466 0.79645 17.7227 0.923386Z" fill="#3E6CAD"/>
</svg>
