<svg width="32" height="29" viewBox="0 0 32 29" fill="none" xmlns="http://www.w3.org/2000/svg">
<path id="Vector" d="M14.2773 0.923386C14.4012 1.05017 14.4996 1.20215 14.5667 1.37062C14.6337 1.53909 14.6683 1.72075 14.6683 1.90522C14.6683 2.08969 14.6337 2.27335 14.5667 2.4457C14.4996 2.61804 14.4012 2.77569 14.2773 2.90964L4.55257 13.427L30.6667 12.673C31.0203 12.6628 31.3595 12.8009 31.6095 13.0569C31.8595 13.3129 32 13.6659 32 14.0382C32 14.4105 31.8595 14.7716 31.6095 15.0421C31.3595 15.3125 31.0203 15.4702 30.6667 15.4804L4.55257 16.2344L14.2773 26.1902C14.5274 26.4463 14.668 26.7995 14.668 27.172C14.668 27.5445 14.5274 27.9058 14.2773 28.1764C14.0271 28.447 13.6878 28.6048 13.3339 28.615C12.9801 28.6252 12.6408 28.4871 12.3906 28.2309L0.391036 15.944C0.267071 15.8172 0.168729 15.6652 0.101633 15.4967C0.0345358 15.3283 0 15.1466 0 14.9621C0 14.7777 0.0345358 14.594 0.101633 14.4216C0.168729 14.2493 0.267071 14.0917 0.391036 13.9577L12.3906 0.977856C12.5145 0.843771 12.6615 0.735989 12.8234 0.660675C12.9852 0.585359 13.1587 0.543992 13.3339 0.538933C13.5092 0.533874 13.6827 0.565223 13.8445 0.631192C14.0064 0.697159 14.1534 0.79645 14.2773 0.923386Z" fill="#3E6CAD"/>
</svg>
